<?xml version="1.0" encoding="UTF-8"?>
<svg id="Layer_2" data-name="Layer 2" xmlns="http://www.w3.org/2000/svg" viewBox="0 0 594.24 103.05">
  <defs>
    <style>
      .cls-1 {
        fill: #fff;
      }

      .cls-2 {
        fill: #68dc6a;
      }
    </style>
  </defs>
  <g id="Layer_2-2" data-name="Layer 2">
    <g>
      <path class="cls-2" d="M104.07,85.6H18.47V0H104.07V85.6Zm-83.12-2.48H101.59V2.48H20.95V83.12Z"/>
      <path class="cls-1" d="M61.49,103.05H0V41.56H61.49v61.49Zm-59.84-1.65H59.84V43.22H1.65v58.18Z"/>
    </g>
    <g>
      <g>
        <path class="cls-1" d="M220.24,84.55c0-6.19,4.73-10.71,11.1-10.71,3.23,0,6.04,1.11,7.96,3.26l-1.95,1.88c-1.62-1.71-3.59-2.48-5.89-2.48-4.73,0-8.23,3.41-8.23,8.05s3.5,8.05,8.23,8.05c2.3,0,4.28-.81,5.89-2.51l1.95,1.88c-1.92,2.15-4.73,3.29-7.99,3.29-6.34,0-11.07-4.52-11.07-10.71Z"/>
        <path class="cls-1" d="M243.59,74.08h2.99v18.34h11.34v2.6h-14.33v-20.95Z"/>
        <path class="cls-1" d="M276.56,92.42v2.6h-15.2v-20.95h14.78v2.6h-11.79v6.43h10.5v2.54h-10.5v6.76h12.21Z"/>
        <path class="cls-1" d="M294.76,89.78h-11.13l-2.3,5.24h-3.08l9.49-20.95h2.96l9.52,20.95h-3.14l-2.3-5.24Zm-1.05-2.39l-4.52-10.26-4.52,10.26h9.04Z"/>
        <path class="cls-1" d="M321.33,74.08v20.95h-2.45l-12.57-15.62v15.62h-2.99v-20.95h2.45l12.57,15.62v-15.62h2.99Z"/>
        <path class="cls-1" d="M327.62,74.08h2.99v20.95h-2.99v-20.95Z"/>
        <path class="cls-1" d="M354.91,74.08v20.95h-2.45l-12.57-15.62v15.62h-2.99v-20.95h2.45l12.57,15.62v-15.62h2.99Z"/>
        <path class="cls-1" d="M375.71,84.43h2.87v8.17c-2.09,1.77-5,2.66-7.93,2.66-6.43,0-11.16-4.52-11.16-10.71s4.73-10.71,11.22-10.71c3.32,0,6.13,1.11,8.05,3.23l-1.85,1.86c-1.74-1.68-3.71-2.42-6.07-2.42-4.85,0-8.35,3.38-8.35,8.05s3.5,8.05,8.32,8.05c1.77,0,3.41-.39,4.91-1.35v-6.82Z"/>
        <path class="cls-1" d="M390.44,92.63l1.11-2.33c1.56,1.41,4.22,2.42,6.91,2.42,3.62,0,5.18-1.41,5.18-3.23,0-5.12-12.69-1.89-12.69-9.67,0-3.23,2.51-5.98,8.02-5.98,2.45,0,5,.66,6.73,1.85l-.99,2.39c-1.83-1.17-3.89-1.71-5.75-1.71-3.56,0-5.09,1.5-5.09,3.32,0,5.12,12.69,1.92,12.69,9.6,0,3.2-2.57,5.95-8.11,5.95-3.2,0-6.34-1.08-8.02-2.63Z"/>
        <path class="cls-1" d="M426.14,92.42v2.6h-15.2v-20.95h14.78v2.6h-11.79v6.43h10.5v2.54h-10.5v6.76h12.21Z"/>
        <path class="cls-1" d="M444.99,95.02l-4.52-6.43c-.42,.03-.87,.06-1.32,.06h-5.18v6.37h-2.99v-20.95h8.17c5.45,0,8.74,2.75,8.74,7.3,0,3.23-1.68,5.57-4.61,6.61l4.97,7.03h-3.26Zm-.09-13.64c0-2.99-2-4.7-5.83-4.7h-5.09v9.43h5.09c3.83,0,5.83-1.74,5.83-4.73Z"/>
        <path class="cls-1" d="M470.94,74.08l-9.19,20.95h-2.96l-9.22-20.95h3.23l7.54,17.21,7.6-17.21h2.99Z"/>
        <path class="cls-1" d="M473.6,74.08h2.99v20.95h-2.99v-20.95Z"/>
        <path class="cls-1" d="M481.17,84.55c0-6.19,4.73-10.71,11.1-10.71,3.23,0,6.04,1.11,7.96,3.26l-1.95,1.88c-1.62-1.71-3.59-2.48-5.89-2.48-4.73,0-8.23,3.41-8.23,8.05s3.5,8.05,8.23,8.05c2.3,0,4.28-.81,5.89-2.51l1.95,1.88c-1.92,2.15-4.73,3.29-7.99,3.29-6.34,0-11.07-4.52-11.07-10.71Z"/>
        <path class="cls-1" d="M519.72,92.42v2.6h-15.2v-20.95h14.78v2.6h-11.79v6.43h10.5v2.54h-10.5v6.76h12.21Z"/>
      </g>
      <g>
        <path class="cls-1" d="M166.94,44.18v3.63h-21.22V18.57h20.63v3.63h-16.46v8.98h14.66v3.55h-14.66v9.44h17.04Z"/>
        <path class="cls-1" d="M198.68,18.57l-12.82,29.24h-4.14l-12.86-29.24h4.51l10.52,24.02,10.61-24.02h4.18Z"/>
        <path class="cls-1" d="M223.6,44.18v3.63h-21.22V18.57h20.63v3.63h-16.46v8.98h14.66v3.55h-14.66v9.44h17.04Z"/>
        <path class="cls-1" d="M249.91,47.81l-6.31-8.98c-.59,.04-1.21,.08-1.84,.08h-7.22v8.9h-4.18V18.57h11.4c7.6,0,12.2,3.84,12.2,10.19,0,4.51-2.34,7.77-6.43,9.23l6.93,9.82h-4.55Zm-.13-19.05c0-4.18-2.8-6.56-8.14-6.56h-7.1v13.16h7.1c5.35,0,8.14-2.42,8.14-6.6Z"/>
        <path class="cls-1" d="M271.49,37.7v10.11h-4.13v-10.19l-11.61-19.05h4.47l9.36,15.41,9.4-15.41h4.13l-11.61,19.13Z"/>
        <g>
          <polygon class="cls-2" points="397.22 35.23 408.13 35.23 402.66 22.54 397.22 35.23"/>
          <circle class="cls-2" cx="337.6" cy="31.67" r="10.21"/>
          <path class="cls-2" d="M433.86,21.71h-6.31v11.58h6.31c4.73,0,7.18-2.16,7.18-5.81s-2.45-5.77-7.18-5.77Z"/>
          <path class="cls-2" d="M291.78,6.35V60.03h184.98V6.35h-184.98Zm15.16,40.25c-4.52,0-9.04-1.41-11.45-3.49l1.87-4.19c2.32,1.87,6.02,3.19,9.58,3.19,4.52,0,6.43-1.62,6.43-3.78,0-6.26-17.26-2.16-17.26-12.94,0-4.69,3.73-8.67,11.7-8.67,3.49,0,7.14,.91,9.67,2.57l-1.7,4.19c-2.61-1.54-5.48-2.28-8.01-2.28-4.48,0-6.31,1.74-6.31,3.94,0,6.18,17.22,2.16,17.22,12.82,0,4.65-3.78,8.63-11.74,8.63Zm40.16,5.93c-3.94,0-6.89-1.54-11.16-6.02-8.13-.71-13.98-6.8-13.98-14.85,0-8.59,6.64-14.94,15.64-14.94s15.64,6.31,15.64,14.94c0,7.01-4.4,12.49-10.87,14.31,1.66,1.78,3.15,2.45,4.85,2.45,1.91,0,3.57-.79,4.98-2.32l2.49,2.99c-1.91,2.24-4.52,3.44-7.59,3.44Zm37.05-19c0,8.46-4.77,13.07-12.7,13.07s-12.74-4.61-12.74-13.07V17.14h5.39v16.18c0,5.97,2.7,8.55,7.38,8.55s7.34-2.57,7.34-8.55V17.14h5.31v16.39Zm28.67,12.65l-2.9-6.72h-14.52l-2.86,6.72h-5.56l13.07-29.04h5.31l13.11,29.04h-5.64Zm28.34,0l-5.93-8.51c-.37,.04-.75,.04-1.12,.04h-6.55v8.46h-5.39V17.14h11.95c7.63,0,12.36,3.9,12.36,10.33,0,4.4-2.24,7.63-6.18,9.17l6.68,9.54h-5.81Zm33.11,0h-21.78V17.14h21.2v4.52h-15.81v7.55h14.02v4.44h-14.02v8.01h16.39v4.52Z"/>
        </g>
        <path class="cls-1" d="M492.06,18.57h4.18v29.24h-4.18V18.57Z"/>
        <path class="cls-1" d="M530.15,18.57v29.24h-3.43l-17.54-21.8v21.8h-4.18V18.57h3.43l17.54,21.8V18.57h4.18Z"/>
        <path class="cls-1" d="M536.53,33.19c0-8.65,6.6-14.95,15.5-14.95,4.51,0,8.44,1.55,11.11,4.55l-2.71,2.63c-2.26-2.38-5.01-3.47-8.23-3.47-6.6,0-11.49,4.76-11.49,11.24s4.89,11.24,11.49,11.24c3.22,0,5.97-1.13,8.23-3.51l2.71,2.63c-2.67,3.01-6.6,4.59-11.15,4.59-8.85,0-15.45-6.31-15.45-14.95Z"/>
        <path class="cls-1" d="M594.24,18.57v29.24h-4.18v-13.03h-16.79v13.03h-4.18V18.57h4.18v12.57h16.79v-12.57h4.18Z"/>
      </g>
    </g>
  </g>
</svg>