<?xml version="1.0" encoding="utf-8"?>
<!-- Generator: Adobe Illustrator 27.5.0, SVG Export Plug-In . SVG Version: 6.00 Build 0)  -->
<svg version="1.1" id="Layer_2_00000026150369598627651980000003874127301753376419_"
	 xmlns="http://www.w3.org/2000/svg" xmlns:xlink="http://www.w3.org/1999/xlink" x="0px" y="0px" viewBox="0 0 594.2 103.1"
	 style="enable-background:new 0 0 594.2 103.1;" xml:space="preserve">
<style type="text/css">
	.st0{fill:#68DC6A;}
	.st1{fill:#111827;}
</style>
<g id="Layer_2-2">
	<g>
		<path class="st0" d="M104.1,85.6H18.5V0h85.6V85.6z M20.9,83.1h80.6V2.5H21C21,2.5,21,83.1,20.9,83.1z"/>
		<path class="st1" d="M61.5,103.1H0V41.6h61.5V103.1z M1.7,101.4h58.2V43.2H1.6C1.6,43.2,1.6,101.4,1.7,101.4z"/>
	</g>
	<g>
		<g>
			<path class="st1" d="M220.2,84.6c0-6.2,4.7-10.7,11.1-10.7c3.2,0,6,1.1,8,3.3l-1.9,1.9c-1.6-1.7-3.6-2.5-5.9-2.5
				c-4.7,0-8.2,3.4-8.2,8.1s3.5,8.1,8.2,8.1c2.3,0,4.3-0.8,5.9-2.5l1.9,1.9c-1.9,2.2-4.7,3.3-8,3.3C225,95.3,220.2,90.7,220.2,84.6
				L220.2,84.6z"/>
			<path class="st1" d="M243.6,74.1h3v18.3h11.3V95h-14.3L243.6,74.1L243.6,74.1z"/>
			<path class="st1" d="M276.6,92.4V95h-15.2v-21h14.8v2.6h-11.8v6.4h10.5v2.5h-10.5v6.8L276.6,92.4L276.6,92.4z"/>
			<path class="st1" d="M294.8,89.8h-11.1l-2.3,5.2h-3.1l9.5-21h3l9.5,20.9h-3.1L294.8,89.8L294.8,89.8z M293.7,87.4l-4.5-10.3
				l-4.5,10.3H293.7L293.7,87.4z"/>
			<path class="st1" d="M321.3,74.1V95h-2.5l-12.6-15.6V95h-3V74.1h2.5l12.6,15.6V74.1H321.3z"/>
			<path class="st1" d="M327.6,74.1h3V95h-3V74.1z"/>
			<path class="st1" d="M354.9,74.1V95h-2.5l-12.6-15.6V95h-3V74.1h2.5l12.6,15.6V74.1H354.9z"/>
			<path class="st1" d="M375.7,84.4h2.9v8.2c-2.1,1.8-5,2.7-7.9,2.7c-6.4,0-11.2-4.5-11.2-10.7s4.7-10.7,11.2-10.7
				c3.3,0,6.1,1.1,8,3.2l-1.9,1.9c-1.7-1.7-3.7-2.4-6.1-2.4c-4.9,0-8.4,3.4-8.4,8.1s3.5,8.1,8.3,8.1c1.8,0,3.4-0.4,4.9-1.3
				L375.7,84.4L375.7,84.4z"/>
			<path class="st1" d="M390.4,92.6l1.1-2.3c1.6,1.4,4.2,2.4,6.9,2.4c3.6,0,5.2-1.4,5.2-3.2c0-5.1-12.7-1.9-12.7-9.7
				c0-3.2,2.5-6,8-6c2.5,0,5,0.7,6.7,1.8l-1,2.4c-1.8-1.2-3.9-1.7-5.8-1.7c-3.6,0-5.1,1.5-5.1,3.3c0,5.1,12.7,1.9,12.7,9.6
				c0,3.2-2.6,5.9-8.1,5.9C395.2,95.2,392.1,94.2,390.4,92.6L390.4,92.6z"/>
			<path class="st1" d="M426.1,92.4V95h-15.2v-21h14.8v2.6h-11.8v6.4h10.5v2.5h-10.5v6.8L426.1,92.4L426.1,92.4z"/>
			<path class="st1" d="M445,95l-4.5-6.4c-0.4,0-0.9,0.1-1.3,0.1H434V95h-3v-21h8.2c5.5,0,8.7,2.8,8.7,7.3c0,3.2-1.7,5.6-4.6,6.6
				l5,7L445,95L445,95z M444.9,81.4c0-3-2-4.7-5.8-4.7H434v9.4h5.1C442.9,86.1,444.9,84.4,444.9,81.4z"/>
			<path class="st1" d="M470.9,74.1L461.8,95h-3l-9.2-20.9h3.2l7.5,17.2l7.6-17.2H470.9L470.9,74.1z"/>
			<path class="st1" d="M473.6,74.1h3V95h-3V74.1z"/>
			<path class="st1" d="M481.2,84.6c0-6.2,4.7-10.7,11.1-10.7c3.2,0,6,1.1,8,3.3l-2,1.9c-1.6-1.7-3.6-2.5-5.9-2.5
				c-4.7,0-8.2,3.4-8.2,8.1s3.5,8.1,8.2,8.1c2.3,0,4.3-0.8,5.9-2.5l2,1.9c-1.9,2.2-4.7,3.3-8,3.3C485.9,95.3,481.2,90.7,481.2,84.6z
				"/>
			<path class="st1" d="M519.7,92.4V95h-15.2v-21h14.8v2.6h-11.8v6.4H518v2.5h-10.5v6.8L519.7,92.4L519.7,92.4z"/>
		</g>
		<g>
			<path class="st1" d="M166.9,44.2v3.6h-21.2V18.6h20.6v3.6h-16.5v9h14.7v3.5h-14.7v9.4L166.9,44.2L166.9,44.2z"/>
			<path class="st1" d="M198.7,18.6l-12.8,29.2h-4.1l-12.9-29.2h4.5l10.5,24l10.6-24L198.7,18.6L198.7,18.6z"/>
			<path class="st1" d="M223.6,44.2v3.6h-21.2V18.6H223v3.6h-16.5v9h14.7v3.5h-14.7v9.4L223.6,44.2L223.6,44.2z"/>
			<path class="st1" d="M249.9,47.8l-6.3-9c-0.6,0-1.2,0.1-1.8,0.1h-7.2v8.9h-4.2V18.6h11.4c7.6,0,12.2,3.8,12.2,10.2
				c0,4.5-2.3,7.8-6.4,9.2l6.9,9.8C254.5,47.8,249.9,47.8,249.9,47.8z M249.8,28.8c0-4.2-2.8-6.6-8.1-6.6h-7.1v13.2h7.1
				C247,35.4,249.8,32.9,249.8,28.8z"/>
			<path class="st1" d="M271.5,37.7v10.1h-4.1V37.6l-11.6-19h4.5l9.4,15.4l9.4-15.4h4.1L271.5,37.7L271.5,37.7z"/>
			<g>
				<polygon class="st0" points="397.2,35.2 408.1,35.2 402.7,22.5 				"/>
				<circle class="st0" cx="337.6" cy="31.7" r="10.2"/>
				<path class="st0" d="M433.9,21.7h-6.3v11.6h6.3c4.7,0,7.2-2.2,7.2-5.8S438.6,21.7,433.9,21.7z"/>
				<path class="st0" d="M291.8,6.3V60h185V6.3H291.8L291.8,6.3z M306.9,46.6c-4.5,0-9-1.4-11.5-3.5l1.9-4.2c2.3,1.9,6,3.2,9.6,3.2
					c4.5,0,6.4-1.6,6.4-3.8c0-6.3-17.3-2.2-17.3-12.9c0-4.7,3.7-8.7,11.7-8.7c3.5,0,7.1,0.9,9.7,2.6l-1.7,4.2
					c-2.6-1.5-5.5-2.3-8-2.3c-4.5,0-6.3,1.7-6.3,3.9c0,6.2,17.2,2.2,17.2,12.8C318.7,42.6,314.9,46.6,306.9,46.6L306.9,46.6z
					 M347.1,52.5c-3.9,0-6.9-1.5-11.2-6c-8.1-0.7-14-6.8-14-14.9c0-8.6,6.6-14.9,15.6-14.9s15.6,6.3,15.6,14.9
					c0,7-4.4,12.5-10.9,14.3c1.7,1.8,3.1,2.5,4.9,2.5c1.9,0,3.6-0.8,5-2.3l2.5,3C352.8,51.3,350.2,52.5,347.1,52.5L347.1,52.5z
					 M384.1,33.5c0,8.5-4.8,13.1-12.7,13.1s-12.7-4.6-12.7-13.1V17.1h5.4v16.2c0,6,2.7,8.5,7.4,8.5s7.3-2.6,7.3-8.5V17.1h5.3
					L384.1,33.5L384.1,33.5z M412.8,46.2l-2.9-6.7h-14.5l-2.9,6.7H387l13.1-29h5.3l13.1,29H412.8L412.8,46.2z M441.2,46.2l-5.9-8.5
					c-0.4,0-0.8,0-1.1,0h-6.5v8.5h-5.4v-29h12c7.6,0,12.4,3.9,12.4,10.3c0,4.4-2.2,7.6-6.2,9.2l6.7,9.5H441.2L441.2,46.2z
					 M474.3,46.2h-21.8v-29h21.2v4.5h-15.8v7.5h14v4.4h-14v8h16.4C474.3,41.7,474.3,46.2,474.3,46.2z"/>
			</g>
			<path class="st1" d="M492.1,18.6h4.2v29.2h-4.2V18.6z"/>
			<path class="st1" d="M530.2,18.6v29.2h-3.4L509.2,26v21.8H505V18.6h3.4L526,40.4V18.6H530.2z"/>
			<path class="st1" d="M536.5,33.2c0-8.6,6.6-15,15.5-15c4.5,0,8.4,1.5,11.1,4.5l-2.7,2.6c-2.3-2.4-5-3.5-8.2-3.5
				c-6.6,0-11.5,4.8-11.5,11.2s4.9,11.2,11.5,11.2c3.2,0,6-1.1,8.2-3.5l2.7,2.6c-2.7,3-6.6,4.6-11.2,4.6
				C543.1,48.1,536.5,41.8,536.5,33.2L536.5,33.2z"/>
			<path class="st1" d="M594.2,18.6v29.2h-4.2v-13h-16.8v13h-4.2V18.6h4.2v12.6h16.8V18.6H594.2z"/>
		</g>
	</g>
</g>
</svg>
