<svg xmlns="http://www.w3.org/2000/svg" viewBox="0 0 26 858.5">
<path d="M11.7,858.5c3.4-14.2,9.6-28.4,10.4-42.5c1-16-4.8-32-6.7-48c-2-16,0-32,1.9-48c1.9-16,3.8-32,4.3-48s-0.4-32-1.9-48
	c-1.4-16-3.4-32-4.3-48c-0.9-16-0.9-32,0.5-48c1.4-16,4.3-32,6.7-48c2.4-16,4.4-32,2.9-48c-1.4-16-6.3-32-11.1-48s-9.7-32-11.1-48
	c-1.5-16,0.5-32,3.4-48c2.9-16,6.7-32,10.6-48c3.9-16,7.7-32,7.7-48s-3.9-32-6.3-48c-2.4-16-3.3-32-2.4-48c1-16,3.9-32,5.8-48
	c2-16,2.9-32,3.4-40L26,0H0v8c0,8,0,24,0,40s0,32,0,48s0,32,0,48s0,32,0,48s0,32,0,48s0,32,0,48s0,32,0,48s0,32,0,48s0,32,0,48
	s0,32,0,48s0,32,0,48s0,32,0,48s0,32,0,48s0,32,0,48s0,32,0,48s0,32,0,48s0,32,0,48c0,14.2,0,28.4,0,42.5H11.7z"/>
</svg>
