<?xml version="1.0" encoding="utf-8"?>
<!-- Generator: Adobe Illustrator 27.0.1, SVG Export Plug-In . SVG Version: 6.00 Build 0)  -->
<svg version="1.1" id="Layer_1" xmlns="http://www.w3.org/2000/svg" xmlns:xlink="http://www.w3.org/1999/xlink" x="0px" y="0px"
	 viewBox="0 0 300 300" style="enable-background:new 0 0 300 300;" xml:space="preserve">
<style type="text/css">
	.st0{fill:#EF4444;}
	.st1{fill:#FFFFFF;}
</style>
<rect class="st0" width="300" height="300"/>
<path class="st1" d="M67.6,147.5l-10.6,5l47,38.1c1.1,0.9,1.5,2.3,1,3.7l-5.8,16l43-7.5c2.6-0.4,5,1.3,5.5,3.9
	c0.1,0.3,0.1,0.7,0.1,1l-2.2,43.2h9l-2.2-43.2c-0.1-2.6,1.9-4.8,4.5-5c0.3,0,0.7,0,1,0.1l43,7.5l-5.8-16c-0.5-1.3-0.1-2.8,1-3.7
	l47-38.1l-10.6-5c-1.5-0.7-2.2-2.4-1.7-4L240,115l-27.1,5.8c-1.5,0.3-3-0.5-3.7-1.9l-5.2-12.3l-21.2,22.7c-1.2,1.3-3.3,1.4-4.6,0.1
	c-0.8-0.8-1.2-1.9-1-3l10.2-52.6l-16.3,9.5c-1.5,0.9-3.5,0.4-4.4-1.2c0-0.1-0.1-0.1-0.1-0.2L150,49.2l-16.6,32.6
	c-0.8,1.6-2.8,2.3-4.4,1.5c-0.1,0-0.1-0.1-0.2-0.1l-16.3-9.5l10.2,52.6c0.3,1.8-0.8,3.5-2.6,3.8c-1.1,0.2-2.2-0.2-3-1L96,106.5
	l-5.2,12.3c-0.6,1.4-2.1,2.2-3.7,1.9L60,115l9.3,28.6C69.8,145.2,69.1,146.9,67.6,147.5z"/>
</svg>
