<?xml version="1.0" encoding="utf-8"?>
<!-- Generator: Adobe Illustrator 27.5.0, SVG Export Plug-In . SVG Version: 6.00 Build 0)  -->
<svg version="1.1" id="prefix__Layer_2_00000011733011591143749770000007938319779492040358_"
	 xmlns="http://www.w3.org/2000/svg" xmlns:xlink="http://www.w3.org/1999/xlink" x="0px" y="0px" viewBox="0 0 200 35"
	 style="enable-background:new 0 0 200 35;" xml:space="preserve">
<style type="text/css">
	.st0{fill:#68DC6A;}
	.st1{fill:#FFFFFF;}
</style>
<g id="prefix__Layer_2-2">
	<path class="st0" d="M35,29H6.2V0.2H35V29z M7.1,28.1h27.1V1H7.1C7.1,1,7.1,28.1,7.1,28.1z"/>
	<path class="st1" d="M20.7,34.8H0V14.1h20.7C20.7,14.1,20.7,34.8,20.7,34.8z M0.6,34.3h19.6V14.7H0.6V34.3z"/>
	<g>
		<path class="st1" d="M74.1,28.6c0-2.1,1.6-3.6,3.7-3.6c1.1,0,2,0.4,2.7,1.1l-0.7,0.6c-0.5-0.6-1.2-0.8-2-0.8
			c-1.6,0-2.8,1.1-2.8,2.7s1.2,2.7,2.8,2.7c0.8,0,1.4-0.3,2-0.8l0.7,0.6c-0.6,0.7-1.6,1.1-2.7,1.1C75.7,32.2,74.1,30.7,74.1,28.6z
			 M82,25.1h1v6.2h3.8v0.9H82V25.1z M93.1,31.3v0.9H88v-7.1h5V26h-4v2.2h3.5V29H89v2.3H93.1z M99.2,30.4h-3.7l-0.8,1.8h-1l3.2-7.1h1
			l3.2,7.1H100C100,32.2,99.2,30.4,99.2,30.4z M98.9,29.6l-1.5-3.5l-1.5,3.5H98.9z M108.1,25.1v7.1h-0.8l-4.2-5.3v5.3h-1v-7.1h0.8
			l4.2,5.3v-5.3C107.1,25.1,108.1,25.1,108.1,25.1z M110.3,25.1h1v7.1h-1V25.1z M119.5,25.1v7.1h-0.8l-4.2-5.3v5.3h-1v-7.1h0.8
			l4.2,5.3v-5.3C118.5,25.1,119.5,25.1,119.5,25.1z M126.5,28.6h1v2.7c-0.7,0.6-1.7,0.9-2.7,0.9c-2.2,0-3.8-1.5-3.8-3.6
			s1.6-3.6,3.8-3.6c1.1,0,2.1,0.4,2.7,1.1l-0.6,0.6c-0.6-0.6-1.2-0.8-2-0.8c-1.6,0-2.8,1.1-2.8,2.7s1.2,2.7,2.8,2.7
			c0.6,0,1.1-0.1,1.7-0.5C126.6,30.8,126.5,28.6,126.5,28.6z M131.4,31.3l0.4-0.8c0.5,0.5,1.4,0.8,2.3,0.8c1.2,0,1.7-0.5,1.7-1.1
			c0-1.7-4.3-0.6-4.3-3.3c0-1.1,0.8-2,2.7-2c0.8,0,1.7,0.2,2.3,0.6l-0.3,0.8c-0.6-0.4-1.3-0.6-1.9-0.6c-1.2,0-1.7,0.5-1.7,1.1
			c0,1.7,4.3,0.6,4.3,3.2c0,1.1-0.9,2-2.7,2C133,32.2,132,31.8,131.4,31.3z M143.4,31.3v0.9h-5.1v-7.1h5V26h-4v2.2h3.5V29h-3.5v2.3
			H143.4z M149.8,32.1l-1.5-2.2h-2.1V32h-1v-7.1h2.7c1.8,0,2.9,0.9,2.9,2.5c0,1.1-0.6,1.9-1.6,2.2l1.7,2.4L149.8,32.1L149.8,32.1z
			 M149.7,27.5c0-1-0.7-1.6-2-1.6H146v3.2h1.7C149.1,29.1,149.7,28.6,149.7,27.5z M158.5,25.1l-3.1,7.1h-1l-3.1-7.1h1.1l2.5,5.8
			l2.6-5.8C157.5,25.1,158.5,25.1,158.5,25.1z M159.4,25.1h1v7.1h-1V25.1z M161.9,28.6c0-2.1,1.6-3.6,3.7-3.6c1.1,0,2,0.4,2.7,1.1
			l-0.7,0.6c-0.5-0.6-1.2-0.8-2-0.8c-1.6,0-2.8,1.1-2.8,2.7s1.2,2.7,2.8,2.7c0.8,0,1.4-0.3,2-0.8l0.7,0.6c-0.6,0.7-1.6,1.1-2.7,1.1
			C163.5,32.2,161.9,30.7,161.9,28.6z M174.9,31.3v0.9h-5.1v-7.1h5V26h-4v2.2h3.5V29h-3.5v2.3H174.9z"/>
		<g>
			<path class="st1" d="M56.2,15v1.2H49V6.4h7v1.2h-5.5v3h4.9v1.2h-4.9V15H56.2z M66.9,6.4l-4.3,9.8h-1.4l-4.3-9.8h1.5l3.5,8.1
				l3.6-8.1C65.5,6.4,66.9,6.4,66.9,6.4z M75.3,15v1.2h-7.1V6.4h6.9v1.2h-5.5v3h4.9v1.2h-4.9V15H75.3z M84.1,16.2l-2.1-3h-3v3h-1.4
				V6.4h3.8c2.6,0,4.1,1.3,4.1,3.4c0,1.5-0.8,2.6-2.2,3.1l2.3,3.3C85.6,16.2,84.1,16.2,84.1,16.2z M84.1,9.8c0-1.4-0.9-2.2-2.7-2.2
				H79V12h2.4C83.1,12.1,84.1,11.2,84.1,9.8z M91.4,12.8v3.4H90v-3.4l-3.9-6.4h1.5l3.2,5.2L94,6.4h1.4L91.4,12.8z"/>
			<path class="st0" d="M133.7,12h3.7l-1.9-4.3L133.7,12z"/>
			<circle class="st0" cx="113.6" cy="10.8" r="3.4"/>
			<path class="st0" d="M146,7.5h-2.1v3.9h2.1c1.6,0,2.4-0.7,2.4-2S147.6,7.5,146,7.5z"/>
			<path class="st0" d="M98.2,2.3v18.1h62.3V2.3H98.2z M103.3,15.8c-1.5,0-3-0.5-3.9-1.2l0.6-1.4c0.8,0.6,2,1.1,3.2,1.1
				c1.5,0,2.2-0.5,2.2-1.3c0-2.1-5.8-0.7-5.8-4.4c0-1.6,1.3-2.9,3.9-2.9c1.2,0,2.4,0.3,3.3,0.9L106.2,8c-0.9-0.5-1.8-0.8-2.7-0.8
				c-1.5,0-2.1,0.6-2.1,1.3c0,2.1,5.8,0.7,5.8,4.3C107.3,14.5,106,15.8,103.3,15.8z M116.8,17.8c-1.3,0-2.3-0.5-3.8-2
				c-2.7-0.2-4.7-2.3-4.7-5c0-2.9,2.2-5,5.3-5c3,0,5.3,2.1,5.3,5c0,2.4-1.5,4.2-3.7,4.8c0.6,0.6,1.1,0.8,1.6,0.8
				c0.6,0,1.2-0.3,1.7-0.8l0.8,1C118.7,17.4,117.9,17.8,116.8,17.8z M129.3,11.4c0,2.8-1.6,4.4-4.3,4.4c-2.7,0-4.3-1.6-4.3-4.4V5.9
				h1.8v5.4c0,2,0.9,2.9,2.5,2.9s2.5-0.9,2.5-2.9V5.9h1.8V11.4z M138.9,15.7l-1-2.3H133l-1,2.3h-1.9l4.4-9.8h1.8l4.4,9.8H138.9z
				 M148.5,15.7l-2-2.9h-2.6v2.8h-1.8V5.9h4c2.6,0,4.2,1.3,4.2,3.5c0,1.5-0.8,2.6-2.1,3.1l2.2,3.2H148.5L148.5,15.7z M159.6,15.7
				h-7.3V5.9h7.1v1.5h-5.3V10h4.7v1.5h-4.7v2.7h5.5V15.7z"/>
			<path class="st1" d="M165.6,6.4h1.4v9.8h-1.4V6.4z M178.4,6.4v9.8h-1.2l-5.9-7.3v7.3H170V6.4h1.2l5.9,7.3V6.4H178.4z M180.6,11.3
				c0-2.9,2.2-5,5.2-5c1.5,0,2.8,0.5,3.7,1.5l-0.9,0.9c-0.8-0.8-1.7-1.2-2.8-1.2c-2.2,0-3.9,1.6-3.9,3.8s1.6,3.8,3.9,3.8
				c1.1,0,2-0.4,2.8-1.2l0.9,0.9c-0.9,1-2.2,1.5-3.8,1.5C182.8,16.4,180.6,14.2,180.6,11.3L180.6,11.3z M200,6.4v9.8h-1.4v-4.4h-5.7
				v4.4h-1.4V6.4h1.4v4.2h5.7V6.4H200z"/>
		</g>
	</g>
</g>
</svg>
