<?xml version="1.0" encoding="utf-8"?>
<!-- Generator: Adobe Illustrator 27.5.0, SVG Export Plug-In . SVG Version: 6.00 Build 0)  -->
<svg version="1.1" id="Layer_2_00000026150369598627651980000003874127301753376419_"
	 xmlns="http://www.w3.org/2000/svg" xmlns:xlink="http://www.w3.org/1999/xlink" x="0px" y="0px" viewBox="0 0 200 35"
	 style="enable-background:new 0 0 200 35;" xml:space="preserve">
<style type="text/css">
	.st0{fill:#68DC6A;}
	.st1{fill:#111827;}
</style>
<g id="Layer_2-2">
	<g>
		<path class="st0" d="M35,29H6.2V0.1H35V29z M7,28.1h27.1V1H7.1C7.1,1,7.1,28.1,7,28.1z"/>
		<path class="st1" d="M20.7,34.9H0V14.2h20.7V34.9z M0.6,34.3h19.6V14.7H0.5C0.5,14.7,0.5,34.3,0.6,34.3z"/>
	</g>
	<g>
		<g>
			<path class="st1" d="M74.1,28.6c0-2.1,1.6-3.6,3.7-3.6c1.1,0,2,0.4,2.7,1.1l-0.6,0.6c-0.5-0.6-1.2-0.8-2-0.8
				c-1.6,0-2.8,1.1-2.8,2.7c0,1.6,1.2,2.7,2.8,2.7c0.8,0,1.4-0.3,2-0.8l0.6,0.6c-0.6,0.7-1.6,1.1-2.7,1.1
				C75.7,32.2,74.1,30.7,74.1,28.6L74.1,28.6z"/>
			<path class="st1" d="M82,25.1h1v6.2h3.8v0.9H82V25.1L82,25.1z"/>
			<path class="st1" d="M93.1,31.2v0.9H88v-7.1h5v0.9h-4v2.2h3.5v0.8H89v2.3L93.1,31.2L93.1,31.2z"/>
			<path class="st1" d="M99.2,30.4h-3.7l-0.8,1.8h-1l3.2-7.1h1l3.2,7h-1L99.2,30.4L99.2,30.4z M98.9,29.6l-1.5-3.5l-1.5,3.5H98.9
				L98.9,29.6z"/>
			<path class="st1" d="M108.1,25.1v7h-0.8l-4.2-5.3v5.3h-1v-7h0.8l4.2,5.3v-5.3H108.1z"/>
			<path class="st1" d="M110.3,25.1h1v7h-1V25.1z"/>
			<path class="st1" d="M119.5,25.1v7h-0.8l-4.2-5.3v5.3h-1v-7h0.8l4.2,5.3v-5.3H119.5z"/>
			<path class="st1" d="M126.5,28.6h1v2.8c-0.7,0.6-1.7,0.9-2.7,0.9c-2.2,0-3.8-1.5-3.8-3.6s1.6-3.6,3.8-3.6c1.1,0,2.1,0.4,2.7,1.1
				l-0.6,0.6c-0.6-0.6-1.2-0.8-2.1-0.8c-1.6,0-2.8,1.1-2.8,2.7c0,1.6,1.2,2.7,2.8,2.7c0.6,0,1.1-0.1,1.6-0.4L126.5,28.6L126.5,28.6z
				"/>
			<path class="st1" d="M131.4,31.3l0.4-0.8c0.5,0.5,1.4,0.8,2.3,0.8c1.2,0,1.8-0.5,1.8-1.1c0-1.7-4.3-0.6-4.3-3.3
				c0-1.1,0.8-2,2.7-2c0.8,0,1.7,0.2,2.3,0.6l-0.3,0.8c-0.6-0.4-1.3-0.6-2-0.6c-1.2,0-1.7,0.5-1.7,1.1c0,1.7,4.3,0.6,4.3,3.2
				c0,1.1-0.9,2-2.7,2C133,32.2,132,31.9,131.4,31.3L131.4,31.3z"/>
			<path class="st1" d="M143.4,31.2v0.9h-5.1v-7.1h5v0.9h-4v2.2h3.5v0.8h-3.5v2.3L143.4,31.2L143.4,31.2z"/>
			<path class="st1" d="M149.8,32.1l-1.5-2.2c-0.1,0-0.3,0-0.4,0h-1.8v2.1h-1v-7.1h2.8c1.9,0,2.9,0.9,2.9,2.5c0,1.1-0.6,1.9-1.5,2.2
				l1.7,2.4L149.8,32.1L149.8,32.1z M149.7,27.5c0-1-0.7-1.6-2-1.6h-1.7v3.2h1.7C149.1,29.1,149.7,28.6,149.7,27.5z"/>
			<path class="st1" d="M158.5,25.1l-3.1,7h-1l-3.1-7h1.1l2.5,5.8l2.6-5.8L158.5,25.1L158.5,25.1z"/>
			<path class="st1" d="M159.4,25.1h1v7h-1V25.1z"/>
			<path class="st1" d="M162,28.6c0-2.1,1.6-3.6,3.7-3.6c1.1,0,2,0.4,2.7,1.1l-0.7,0.6c-0.5-0.6-1.2-0.8-2-0.8
				c-1.6,0-2.8,1.1-2.8,2.7c0,1.6,1.2,2.7,2.8,2.7c0.8,0,1.4-0.3,2-0.8l0.7,0.6c-0.6,0.7-1.6,1.1-2.7,1.1
				C163.5,32.2,162,30.7,162,28.6z"/>
			<path class="st1" d="M174.9,31.2v0.9h-5.1v-7.1h5v0.9h-4v2.2h3.5v0.8h-3.5v2.3L174.9,31.2L174.9,31.2z"/>
		</g>
		<g>
			<path class="st1" d="M56.2,15v1.2H49V6.4H56v1.2h-5.6v3h4.9v1.2h-4.9V15L56.2,15L56.2,15z"/>
			<path class="st1" d="M66.9,6.4l-4.3,9.8h-1.4l-4.3-9.8h1.5l3.5,8.1l3.6-8.1L66.9,6.4L66.9,6.4z"/>
			<path class="st1" d="M75.3,15v1.2h-7.1V6.4h6.9v1.2h-5.6v3h4.9v1.2h-4.9V15L75.3,15L75.3,15z"/>
			<path class="st1" d="M84.1,16.2l-2.1-3c-0.2,0-0.4,0-0.6,0H79v3h-1.4V6.4h3.8c2.6,0,4.1,1.3,4.1,3.4c0,1.5-0.8,2.6-2.2,3.1
				l2.3,3.3C85.7,16.2,84.1,16.2,84.1,16.2z M84.1,9.8c0-1.4-0.9-2.2-2.7-2.2H79v4.4h2.4C83.1,12.1,84.1,11.2,84.1,9.8z"/>
			<path class="st1" d="M91.4,12.8v3.4H90v-3.4l-3.9-6.4h1.5l3.2,5.2l3.2-5.2h1.4L91.4,12.8L91.4,12.8z"/>
			<g>
				<polygon class="st0" points="133.7,12 137.4,12 135.5,7.7 				"/>
				<circle class="st0" cx="113.6" cy="10.8" r="3.4"/>
				<path class="st0" d="M146,7.5h-2.1v3.9h2.1c1.6,0,2.4-0.7,2.4-2S147.6,7.5,146,7.5z"/>
				<path class="st0" d="M98.2,2.3v18.1h62.3V2.3H98.2L98.2,2.3z M103.3,15.8c-1.5,0-3-0.5-3.9-1.2l0.6-1.4c0.8,0.6,2,1.1,3.2,1.1
					c1.5,0,2.2-0.5,2.2-1.3c0-2.1-5.8-0.7-5.8-4.3c0-1.6,1.2-2.9,3.9-2.9c1.2,0,2.4,0.3,3.3,0.9l-0.6,1.4c-0.9-0.5-1.9-0.8-2.7-0.8
					c-1.5,0-2.1,0.6-2.1,1.3c0,2.1,5.8,0.7,5.8,4.3C107.3,14.5,106,15.8,103.3,15.8L103.3,15.8z M116.8,17.8c-1.3,0-2.3-0.5-3.8-2
					c-2.7-0.2-4.7-2.3-4.7-5c0-2.9,2.2-5,5.3-5s5.3,2.1,5.3,5c0,2.4-1.5,4.2-3.7,4.8c0.6,0.6,1,0.8,1.6,0.8c0.6,0,1.2-0.3,1.7-0.8
					l0.8,1C118.7,17.4,117.9,17.8,116.8,17.8L116.8,17.8z M129.3,11.4c0,2.9-1.6,4.4-4.3,4.4c-2.7,0-4.3-1.5-4.3-4.4V5.9h1.8v5.5
					c0,2,0.9,2.9,2.5,2.9s2.5-0.9,2.5-2.9V5.9h1.8L129.3,11.4L129.3,11.4z M138.9,15.7l-1-2.3h-4.9l-1,2.3h-1.9l4.4-9.8h1.8l4.4,9.8
					H138.9L138.9,15.7z M148.5,15.7l-2-2.9c-0.1,0-0.3,0-0.4,0H144v2.9h-1.8V5.9h4c2.6,0,4.2,1.3,4.2,3.5c0,1.5-0.7,2.6-2.1,3.1
					l2.3,3.2H148.5L148.5,15.7z M159.6,15.7h-7.3V5.9h7.1v1.5h-5.3V10h4.7v1.5h-4.7v2.7h5.5C159.6,14.2,159.6,15.7,159.6,15.7z"/>
			</g>
			<path class="st1" d="M165.6,6.4h1.4v9.8h-1.4V6.4z"/>
			<path class="st1" d="M178.5,6.4v9.8h-1.1l-5.9-7.3v7.3H170V6.4h1.1l5.9,7.3V6.4H178.5z"/>
			<path class="st1" d="M180.6,11.3c0-2.9,2.2-5,5.2-5c1.5,0,2.8,0.5,3.7,1.5l-0.9,0.9c-0.8-0.8-1.7-1.2-2.8-1.2
				c-2.2,0-3.9,1.6-3.9,3.8s1.6,3.8,3.9,3.8c1.1,0,2-0.4,2.8-1.2l0.9,0.9c-0.9,1-2.2,1.5-3.8,1.5C182.8,16.3,180.6,14.2,180.6,11.3
				L180.6,11.3z"/>
			<path class="st1" d="M200,6.4v9.8h-1.4v-4.4h-5.7v4.4h-1.4V6.4h1.4v4.2h5.7V6.4H200z"/>
		</g>
	</g>
</g>
</svg>
