<svg version="1.1" id="prefix__Layer_2_00000011733011591143749770000007938319779492040358_" xmlns="http://www.w3.org/2000/svg" x="0" y="0" viewBox="0 0 200 35" xml:space="preserve"><style>.prefix__st0{fill:#68dc6a}.prefix__st1{fill:#fff}</style><g id="prefix__Layer_2-2"><path class="prefix__st0" d="M35 29H6.2V.2H35V29zm-27.9-.9h27.1V1H7.1v27.1z"/><path class="prefix__st1" d="M20.7 34.8H0V14.1h20.7v20.7zM.6 34.3h19.6V14.7H.6v19.6z"/><g><path class="prefix__st1" d="M74.1 28.6c0-2.1 1.6-3.6 3.7-3.6 1.1 0 2 .4 2.7 1.1l-.7.6c-.5-.6-1.2-.8-2-.8-1.6 0-2.8 1.1-2.8 2.7s1.2 2.7 2.8 2.7c.8 0 1.4-.3 2-.8l.7.6c-.6.7-1.6 1.1-2.7 1.1-2.1 0-3.7-1.5-3.7-3.6zM82 25.1h1v6.2h3.8v.9H82v-7.1zM93.1 31.3v.9H88v-7.1h5v.9h-4v2.2h3.5v.8H89v2.3h4.1zM99.2 30.4h-3.7l-.8 1.8h-1l3.2-7.1h1l3.2 7.1H100l-.8-1.8zm-.3-.8l-1.5-3.5-1.5 3.5h3zM108.1 25.1v7.1h-.8l-4.2-5.3v5.3h-1v-7.1h.8l4.2 5.3v-5.3h1zM110.3 25.1h1v7.1h-1v-7.1zM119.5 25.1v7.1h-.8l-4.2-5.3v5.3h-1v-7.1h.8l4.2 5.3v-5.3h1zM126.5 28.6h1v2.7c-.7.6-1.7.9-2.7.9-2.2 0-3.8-1.5-3.8-3.6s1.6-3.6 3.8-3.6c1.1 0 2.1.4 2.7 1.1l-.6.6c-.6-.6-1.2-.8-2-.8-1.6 0-2.8 1.1-2.8 2.7s1.2 2.7 2.8 2.7c.6 0 1.1-.1 1.7-.5l-.1-2.2zM131.4 31.3l.4-.8c.5.5 1.4.8 2.3.8 1.2 0 1.7-.5 1.7-1.1 0-1.7-4.3-.6-4.3-3.3 0-1.1.8-2 2.7-2 .8 0 1.7.2 2.3.6l-.3.8c-.6-.4-1.3-.6-1.9-.6-1.2 0-1.7.5-1.7 1.1 0 1.7 4.3.6 4.3 3.2 0 1.1-.9 2-2.7 2-1.2.2-2.2-.2-2.8-.7zM143.4 31.3v.9h-5.1v-7.1h5v.9h-4v2.2h3.5v.8h-3.5v2.3h4.1zM149.8 32.1l-1.5-2.2h-2.1V32h-1v-7.1h2.7c1.8 0 2.9.9 2.9 2.5 0 1.1-.6 1.9-1.6 2.2l1.7 2.4-1.1.1zm-.1-4.6c0-1-.7-1.6-2-1.6H146v3.2h1.7c1.4 0 2-.5 2-1.6zM158.5 25.1l-3.1 7.1h-1l-3.1-7.1h1.1l2.5 5.8 2.6-5.8h1zM159.4 25.1h1v7.1h-1v-7.1zM161.9 28.6c0-2.1 1.6-3.6 3.7-3.6 1.1 0 2 .4 2.7 1.1l-.7.6c-.5-.6-1.2-.8-2-.8-1.6 0-2.8 1.1-2.8 2.7s1.2 2.7 2.8 2.7c.8 0 1.4-.3 2-.8l.7.6c-.6.7-1.6 1.1-2.7 1.1-2.1 0-3.7-1.5-3.7-3.6zM174.9 31.3v.9h-5.1v-7.1h5v.9h-4v2.2h3.5v.8h-3.5v2.3h4.1z"/><g><path class="prefix__st1" d="M56.2 15v1.2H49V6.4h7v1.2h-5.5v3h4.9v1.2h-4.9V15h5.7zM66.9 6.4l-4.3 9.8h-1.4l-4.3-9.8h1.5l3.5 8.1 3.6-8.1h1.4zM75.3 15v1.2h-7.1V6.4h6.9v1.2h-5.5v3h4.9v1.2h-4.9V15h5.7zM84.1 16.2l-2.1-3h-3v3h-1.4V6.4h3.8c2.6 0 4.1 1.3 4.1 3.4 0 1.5-.8 2.6-2.2 3.1l2.3 3.3h-1.5zm0-6.4c0-1.4-.9-2.2-2.7-2.2H79V12h2.4c1.7.1 2.7-.8 2.7-2.2zM91.4 12.8v3.4H90v-3.4l-3.9-6.4h1.5l3.2 5.2L94 6.4h1.4l-4 6.4z"/><path class="prefix__st0" d="M133.7 12h3.7l-1.9-4.3z"/><circle class="prefix__st0" cx="113.6" cy="10.8" r="3.4"/><path class="prefix__st0" d="M146 7.5h-2.1v3.9h2.1c1.6 0 2.4-.7 2.4-2s-.8-1.9-2.4-1.9z"/><path class="prefix__st0" d="M98.2 2.3v18.1h62.3V2.3H98.2zm5.1 13.5c-1.5 0-3-.5-3.9-1.2l.6-1.4c.8.6 2 1.1 3.2 1.1 1.5 0 2.2-.5 2.2-1.3 0-2.1-5.8-.7-5.8-4.4 0-1.6 1.3-2.9 3.9-2.9 1.2 0 2.4.3 3.3.9l-.6 1.4c-.9-.5-1.8-.8-2.7-.8-1.5 0-2.1.6-2.1 1.3 0 2.1 5.8.7 5.8 4.3.1 1.7-1.2 3-3.9 3zm13.5 2c-1.3 0-2.3-.5-3.8-2-2.7-.2-4.7-2.3-4.7-5 0-2.9 2.2-5 5.3-5 3 0 5.3 2.1 5.3 5 0 2.4-1.5 4.2-3.7 4.8.6.6 1.1.8 1.6.8.6 0 1.2-.3 1.7-.8l.8 1c-.6.8-1.4 1.2-2.5 1.2zm12.5-6.4c0 2.8-1.6 4.4-4.3 4.4-2.7 0-4.3-1.6-4.3-4.4V5.9h1.8v5.4c0 2 .9 2.9 2.5 2.9s2.5-.9 2.5-2.9V5.9h1.8v5.5zm9.6 4.3l-1-2.3H133l-1 2.3h-1.9l4.4-9.8h1.8l4.4 9.8h-1.8zm9.6 0l-2-2.9h-2.6v2.8h-1.8V5.9h4c2.6 0 4.2 1.3 4.2 3.5 0 1.5-.8 2.6-2.1 3.1l2.2 3.2h-1.9zm11.1 0h-7.3V5.9h7.1v1.5h-5.3V10h4.7v1.5h-4.7v2.7h5.5v1.5z"/><path class="prefix__st1" d="M165.6 6.4h1.4v9.8h-1.4V6.4zM178.4 6.4v9.8h-1.2l-5.9-7.3v7.3H170V6.4h1.2l5.9 7.3V6.4h1.3zM180.6 11.3c0-2.9 2.2-5 5.2-5 1.5 0 2.8.5 3.7 1.5l-.9.9c-.8-.8-1.7-1.2-2.8-1.2-2.2 0-3.9 1.6-3.9 3.8s1.6 3.8 3.9 3.8c1.1 0 2-.4 2.8-1.2l.9.9c-.9 1-2.2 1.5-3.8 1.5-2.9.1-5.1-2.1-5.1-5zM200 6.4v9.8h-1.4v-4.4h-5.7v4.4h-1.4V6.4h1.4v4.2h5.7V6.4h1.4z"/></g></g></g></svg>